<svg id="bd58c680-2fe4-46ac-b800-cc473dde80b5" data-name="Layer 1" xmlns="http://www.w3.org/2000/svg" viewBox="0 0 48 36.98"><title>about-us</title><g id="b2b1bee4-7457-4224-a892-5c2263b24080" data-name="Outline"><path d="M54.2,8.43a.8.8,0,0,0-.8.8V38H49.06a67.93,67.93,0,0,0-15.3,1.74,1.59,1.59,0,0,1-1.68-.67,18.17,18.17,0,0,1,9.49-2.67H51a.8.8,0,0,0,.8-.8V30a.8.8,0,1,0-1.6,0v4.8H41.57A19.7,19.7,0,0,0,31.8,37.4V15.63a.8.8,0,1,0-1.6,0V37.39a19.8,19.8,0,0,0-9.77-2.56H11.8V6H24.12a6.08,6.08,0,0,1,6.08,6.08.8.8,0,0,0,1.6,0A6.08,6.08,0,0,1,37.88,6H50.2v20.8a.8.8,0,0,0,1.6,0V5.23a.8.8,0,0,0-.8-.8H37.88A7.68,7.68,0,0,0,31,8.69a7.68,7.68,0,0,0-6.88-4.26H11a.8.8,0,0,0-.8.8v30.4a.8.8,0,0,0,.8.8h9.43a18.17,18.17,0,0,1,9.49,2.67,1.6,1.6,0,0,1-1.68.67A67.93,67.93,0,0,0,12.94,38H8.6V9.23a.8.8,0,1,0-1.6,0v29.6a.8.8,0,0,0,.8.8h5.14a66.47,66.47,0,0,1,14.94,1.7,3.19,3.19,0,0,0,3.12-1,3.19,3.19,0,0,0,3.12,1,66.47,66.47,0,0,1,14.94-1.7H54.2a.8.8,0,0,0,.8-.8V9.23A.8.8,0,0,0,54.2,8.43Z" transform="translate(-7 -4.43)" fill="#fff"/><path d="M28.38,11.32A7.6,7.6,0,0,0,24.12,10H15a.8.8,0,0,0,0,1.6h9.12a5.94,5.94,0,0,1,3.37,1,.81.81,0,0,0,1.11-.22.79.79,0,0,0-.22-1.11Z" transform="translate(-7 -4.43)" fill="#fff"/><path d="M47,10H37.88a7.52,7.52,0,0,0-4.26,1.29.79.79,0,0,0-.22,1.11.81.81,0,0,0,1.11.22,5.94,5.94,0,0,1,3.37-1H47A.8.8,0,1,0,47,10Z" transform="translate(-7 -4.43)" fill="#fff"/><path d="M28.38,15.32A7.6,7.6,0,0,0,24.12,14H15a.8.8,0,0,0,0,1.6h9.12a5.94,5.94,0,0,1,3.37,1,.81.81,0,0,0,1.11-.22.79.79,0,0,0-.22-1.11Z" transform="translate(-7 -4.43)" fill="#fff"/><path d="M47,14H37.88a7.52,7.52,0,0,0-4.26,1.29.79.79,0,0,0-.22,1.11.81.81,0,0,0,1.11.22h0a5.94,5.94,0,0,1,3.37-1H47A.8.8,0,1,0,47,14Z" transform="translate(-7 -4.43)" fill="#fff"/><path d="M28.38,19.32A7.6,7.6,0,0,0,24.12,18H15a.8.8,0,1,0,0,1.6h9.12a5.94,5.94,0,0,1,3.37,1,.81.81,0,0,0,1.11-.22.79.79,0,0,0-.22-1.11Z" transform="translate(-7 -4.43)" fill="#fff"/><path d="M47,18H37.88a7.52,7.52,0,0,0-4.26,1.29.79.79,0,0,0-.22,1.11.81.81,0,0,0,1.11.22h0a5.94,5.94,0,0,1,3.37-1H47A.8.8,0,0,0,47,18Z" transform="translate(-7 -4.43)" fill="#fff"/><path d="M28.38,23.32A7.6,7.6,0,0,0,24.12,22H15a.8.8,0,1,0,0,1.6h9.12a5.94,5.94,0,0,1,3.37,1,.81.81,0,0,0,1.11-.22.79.79,0,0,0-.22-1.11Z" transform="translate(-7 -4.43)" fill="#fff"/><path d="M47,22H37.88a7.52,7.52,0,0,0-4.26,1.29.79.79,0,0,0-.22,1.11.81.81,0,0,0,1.11.22,5.94,5.94,0,0,1,3.37-1H47A.8.8,0,0,0,47,22Z" transform="translate(-7 -4.43)" fill="#fff"/><path d="M28.38,27.32A7.6,7.6,0,0,0,24.12,26H15a.8.8,0,1,0,0,1.6h9.12a5.94,5.94,0,0,1,3.37,1,.81.81,0,0,0,1.11-.22.79.79,0,0,0-.22-1.11Z" transform="translate(-7 -4.43)" fill="#fff"/><path d="M47,26H37.88a7.52,7.52,0,0,0-4.26,1.29.79.79,0,0,0-.22,1.11.81.81,0,0,0,1.11.22,5.94,5.94,0,0,1,3.37-1H47A.8.8,0,0,0,47,26Z" transform="translate(-7 -4.43)" fill="#fff"/><path d="M24.12,30H15a.8.8,0,1,0,0,1.6h9.12a5.94,5.94,0,0,1,3.37,1,.81.81,0,0,0,1.11-.22.79.79,0,0,0-.22-1.11h0A7.52,7.52,0,0,0,24.12,30Z" transform="translate(-7 -4.43)" fill="#fff"/><path d="M47,30H37.88a7.52,7.52,0,0,0-4.26,1.29.79.79,0,0,0-.22,1.11.81.81,0,0,0,1.11.22h0a5.94,5.94,0,0,1,3.37-1H47A.8.8,0,0,0,47,30Z" transform="translate(-7 -4.43)" fill="#fff"/></g></svg>