<svg id="fabd64d8-d937-49a4-b4bc-ec13a7a7f403" data-name="Layer 1" xmlns="http://www.w3.org/2000/svg" viewBox="0 0 34 34"><title>behance-black</title><path d="M15.48,31.72h0a16,16,0,0,1-16-16h0a16,16,0,0,1,16-16h0a16,16,0,0,1,16,16h0A16,16,0,0,1,15.48,31.72Z" transform="translate(1.52 1.28)" fill="none" stroke="#1d1d1d" stroke-miterlimit="10" stroke-width="2"/><path d="M19.36,7.1H11.6a4.77,4.77,0,0,0-4.77,4.77v7.76A4.78,4.78,0,0,0,11.6,24.4h7.76a4.77,4.77,0,0,0,4.77-4.77V11.87A4.76,4.76,0,0,0,19.36,7.1Zm3.38,12.51A3.4,3.4,0,0,1,19.34,23H11.62a3.39,3.39,0,0,1-3.39-3.39V11.89a3.4,3.4,0,0,1,3.39-3.4h7.72a3.4,3.4,0,0,1,3.4,3.4Z" transform="translate(1.52 1.28)" fill="#1d1d1d"/><path d="M15.48,11.19A4.56,4.56,0,1,0,20,15.75,4.56,4.56,0,0,0,15.48,11.19Zm0,7.53a3,3,0,1,1,3-3A3,3,0,0,1,15.48,18.72Z" transform="translate(1.52 1.28)" fill="#1d1d1d"/><path d="M21.22,11a1,1,0,1,1-1-1A1,1,0,0,1,21.22,11Z" transform="translate(1.52 1.28)" fill="#1d1d1d"/></svg>