<svg id="b213dbb8-f83b-4898-993e-c79cac07fc15" data-name="Layer 1" xmlns="http://www.w3.org/2000/svg" viewBox="0 0 48 48"><title>blog</title><path d="M53.39,11.46,46.84,4.91a4.45,4.45,0,0,0-6.17,0L11.35,34.52a1.08,1.08,0,0,0-.28.47L6.71,50.28A1.09,1.09,0,0,0,7,51.35a1.07,1.07,0,0,0,.77.32,1.54,1.54,0,0,0,.3,0l15.27-4.37A1.08,1.08,0,0,0,23.8,47L53.39,17.63a4.36,4.36,0,0,0,0-6.17ZM35.92,12.85l4,4-21,21-1.51-3a1.09,1.09,0,0,0-1-.61H14.74ZM9.35,49l1.42-5,3.55,3.55Zm12.59-3.6-5.22,1.49-5.27-5.26,1.49-5.22h2.87l1.88,3.76a1.08,1.08,0,0,0,.49.48l3.76,1.88v2.87Zm2.18-1.79V41.85a1.1,1.1,0,0,0-.6-1l-3-1.5,21-21,4,4ZM51.85,16.12,47,20.88,37.45,11.3l4.77-4.81a2.24,2.24,0,0,1,3.08,0L51.85,13a2.17,2.17,0,0,1,0,3.08Z" transform="translate(-6.67 -3.67)" fill="#fff"/></svg>