<svg id="ed4692d3-f15e-4944-8723-3e8c8418f86f" data-name="Capa 1" xmlns="http://www.w3.org/2000/svg" viewBox="0 0 141.73 132.29"><title>contacts</title><path d="M55.15,6.33A2.33,2.33,0,0,0,53.06,6L5.82,20.13A2.37,2.37,0,0,0,4.13,22.4V135.78a2.38,2.38,0,0,0,1,1.9,2.33,2.33,0,0,0,1.41.46,2.22,2.22,0,0,0,.67-.1l47.25-14.17a2.36,2.36,0,0,0,1.68-2.26V8.22A2.35,2.35,0,0,0,55.15,6.33ZM51.38,119.85,8.86,132.61V24.15L51.38,11.4Z" transform="translate(-4.13 -5.86)" fill="#fff"/><path d="M144.91,6.33A2.32,2.32,0,0,0,142.83,6L95.58,20.13A2.36,2.36,0,0,0,93.9,22.4V135.78a2.37,2.37,0,0,0,.95,1.9,2.33,2.33,0,0,0,1.41.46,2.24,2.24,0,0,0,.68-.1l47.24-14.17a2.37,2.37,0,0,0,1.69-2.26V8.22A2.36,2.36,0,0,0,144.91,6.33Zm-3.77,113.52L98.62,132.61V24.15L141.14,11.4Z" transform="translate(-4.13 -5.86)" fill="#fff"/><path d="M97,20.15,54.49,6a2.36,2.36,0,0,0-3.11,2.24V121.61A2.36,2.36,0,0,0,53,123.85L95.51,138a2.45,2.45,0,0,0,.75.12,2.35,2.35,0,0,0,2.36-2.36V22.4A2.38,2.38,0,0,0,97,20.15ZM93.9,132.5,56.1,119.91V11.5L93.9,24.1Z" transform="translate(-4.13 -5.86)" fill="#fff"/><path d="M26.17,105.12a2.36,2.36,0,0,0-2.72,1.95,30.85,30.85,0,0,0-.42,5.09,2.37,2.37,0,0,0,4.73,0,27.07,27.07,0,0,1,.35-4.32A2.36,2.36,0,0,0,26.17,105.12Z" transform="translate(-4.13 -5.86)" fill="#fff"/><path d="M52.67,81.47A30.6,30.6,0,0,0,42.43,83.6,2.36,2.36,0,0,0,44.17,88a25.86,25.86,0,0,1,8.67-1.8,2.36,2.36,0,1,0-.17-4.72Z" transform="translate(-4.13 -5.86)" fill="#fff"/><path d="M60.11,83.75a2.37,2.37,0,0,0,2.11,2.6,26.15,26.15,0,0,1,8.55,2.11l2-4.26A30.67,30.67,0,0,0,62.7,81.64,2.36,2.36,0,0,0,60.11,83.75Z" transform="translate(-4.13 -5.86)" fill="#fff"/><path d="M33.51,89.05a30.94,30.94,0,0,0-6.59,8.13,2.37,2.37,0,0,0,.91,3.22,2.37,2.37,0,0,0,3.22-.91,25.89,25.89,0,0,1,5.57-6.89,2.36,2.36,0,0,0-3.11-3.55Z" transform="translate(-4.13 -5.86)" fill="#fff"/><path d="M122.14,60.21a2.35,2.35,0,0,0-3.22.9A25.91,25.91,0,0,1,113.33,68a2.37,2.37,0,0,0-.23,3.33,2.34,2.34,0,0,0,1.78.81,2.38,2.38,0,0,0,1.56-.58,31,31,0,0,0,6.6-8.12A2.35,2.35,0,0,0,122.14,60.21Z" transform="translate(-4.13 -5.86)" fill="#fff"/><path d="M88.62,82.6a17.57,17.57,0,0,1-5.21,2.75,10.76,10.76,0,0,1-2.41.51,2.37,2.37,0,0,0,.23,4.72l.24,0a15.62,15.62,0,0,0,3.43-.73,22,22,0,0,0,6.61-3.5,2.36,2.36,0,0,0-2.89-3.73Z" transform="translate(-4.13 -5.86)" fill="#fff"/><path d="M105.76,72.58c-.65.25-1.31.48-2,.68a33.76,33.76,0,0,0-7.29,3.21,2.37,2.37,0,0,0,1.2,4.4,2.39,2.39,0,0,0,1.2-.33,29,29,0,0,1,6.25-2.76c.8-.24,1.58-.51,2.35-.81a2.36,2.36,0,0,0-1.73-4.39Z" transform="translate(-4.13 -5.86)" fill="#fff"/><path d="M124.61,46a2.36,2.36,0,0,0-2.37,2.36,27.17,27.17,0,0,1-.35,4.32,2.36,2.36,0,0,0,1.94,2.72l.39,0a2.37,2.37,0,0,0,2.33-2,30.85,30.85,0,0,0,.42-5.09A2.36,2.36,0,0,0,124.61,46Z" transform="translate(-4.13 -5.86)" fill="#fff"/><path d="M130.69,87.37,124,79.88a2.37,2.37,0,0,0-3.53,0l-6.59,7.39a11.82,11.82,0,1,0,16.8.1Zm-3.44,13.26a7.25,7.25,0,0,1-10,0,7,7,0,0,1-2.07-5,7.11,7.11,0,0,1,2.16-5.1L122.24,85l5,5.61a7.09,7.09,0,0,1,0,10Z" transform="translate(-4.13 -5.86)" fill="#fff"/><path d="M122.24,102.71a2.36,2.36,0,0,0-2.36,2.36v11.81a2.37,2.37,0,1,0,4.73,0V105.07A2.37,2.37,0,0,0,122.24,102.71Z" transform="translate(-4.13 -5.86)" fill="#fff"/><path d="M83.44,42.49,76.76,35a2.36,2.36,0,0,0-3.52,0l-6.59,7.39a11.81,11.81,0,1,0,16.79.1ZM80,55.75a7.25,7.25,0,0,1-10,0,7,7,0,0,1-2.08-5,7.12,7.12,0,0,1,2.17-5.1L75,40.12l5,5.61a7.07,7.07,0,0,1,0,10Z" transform="translate(-4.13 -5.86)" fill="#fff"/><path d="M36.51,58.52a2.37,2.37,0,0,0-3.34,0L19,72.69A2.36,2.36,0,1,0,22.34,76L36.51,61.86A2.35,2.35,0,0,0,36.51,58.52Z" transform="translate(-4.13 -5.86)" fill="#fff"/><path d="M36.51,72.69,22.34,58.52A2.36,2.36,0,1,0,19,61.86L33.17,76a2.34,2.34,0,0,0,3.34,0A2.35,2.35,0,0,0,36.51,72.69Z" transform="translate(-4.13 -5.86)" fill="#fff"/></svg>