<svg id="a4020475-2a35-439e-8ae8-a636ce6667f6" data-name="Layer 1" xmlns="http://www.w3.org/2000/svg" viewBox="0 0 34 34"><title>facebook-black</title><path d="M15.48,31.72h0a16,16,0,0,1-16-16h0a16,16,0,0,1,16-16h0a16,16,0,0,1,16,16h0A16,16,0,0,1,15.48,31.72Z" transform="translate(1.52 1.28)" fill="none" stroke="#1d1d1d" stroke-miterlimit="10" stroke-width="2"/><path d="M18.25,16.44H15.72v8.13H12V16.44H10.2V13.26H12V11.2a3.51,3.51,0,0,1,3.78-3.78h2.77v3.09h-2a.77.77,0,0,0-.8.87v1.87h2.86Zm.44.1" transform="translate(1.52 1.28)" fill="#1d1d1d"/></svg>