<?xml version="1.0" encoding="UTF-8"?>
<!DOCTYPE svg PUBLIC "-//W3C//DTD SVG 1.0//EN" "http://www.w3.org/TR/2001/REC-SVG-20010904/DTD/svg10.dtd">
<!-- Creator: CorelDRAW 2019 (64-Bit Evaluation Version) -->
<svg xmlns="http://www.w3.org/2000/svg" xml:space="preserve" width="32px" height="32px" version="1.0" shape-rendering="geometricPrecision" text-rendering="geometricPrecision" image-rendering="optimizeQuality" fill-rule="evenodd" clip-rule="evenodd"
viewBox="0 0 32 32"
 xmlns:xlink="http://www.w3.org/1999/xlink"
 xmlns:xodm="http://www.corel.com/coreldraw/odm/2003">
 <g id="Layer_x0020_1">
  <metadata id="CorelCorpID_0Corel-Layer"/>
  <g id="facebook-black.svg">
   <g>
    <path fill="black" fill-rule="nonzero" d="M24.45 15.11c0,3.58 -2.5,6.57 -5.86,7.34l0 -6.26 1.82 0 0 -2.09 -1.83 0 0 -0.47c0,-0.9 0.39,-1.62 1.32,-1.62 0.37,0 0.67,0.05 0.92,0.13l0.11 -2.19c-0.39,-0.11 -0.88,-0.18 -1.51,-0.18 -0.82,0 -1.81,0.24 -2.52,0.91 -0.82,0.75 -1.16,1.96 -1.16,3.06l0 0.36 -1.2 0 0 2.09 1.2 0 0 6.35c-3.6,-0.57 -6.36,-3.67 -6.36,-7.43 0,-4.17 3.37,-7.54 7.54,-7.54 4.16,0 7.53,3.37 7.53,7.54z"/>
   </g>
   <g>
   </g>
   <g>
   </g>
   <g>
   </g>
   <g>
   </g>
   <g>
   </g>
   <g>
   </g>
   <g>
   </g>
   <g>
   </g>
   <g>
   </g>
   <g>
   </g>
   <g>
   </g>
   <g>
   </g>
   <g>
   </g>
   <g>
   </g>
   <g>
   </g>
  </g>
 </g>
</svg>
