<svg id="a296a0f2-e875-46c4-99ea-10a1bbe8fa84" data-name="Layer 1" xmlns="http://www.w3.org/2000/svg" viewBox="0 0 34 34"><title>linkedin-black</title><path d="M15.48,31.72h0a16,16,0,0,1-16-16h0a16,16,0,0,1,16-16h0a16,16,0,0,1,16,16h0A16,16,0,0,1,15.48,31.72Z" transform="translate(1.52 1.28)" fill="none" stroke="#1d1d1d" stroke-miterlimit="10" stroke-width="2"/><path d="M23.23,16.81v5.55H20V17.18c0-1.3-.47-2.19-1.63-2.19a1.76,1.76,0,0,0-1.65,1.18,2.13,2.13,0,0,0-.11.79v5.4H13.4s0-8.77,0-9.68h3.22v1.37a.05.05,0,0,1,0,0h0v0a3.21,3.21,0,0,1,2.9-1.59c2.12,0,3.71,1.38,3.71,4.35ZM8.41,22.36h3.22V12.68H8.41Zm0,0,3.31-13a1.66,1.66,0,1,1-1.65-1.66A1.66,1.66,0,0,1,11.72,9.4Z" transform="translate(1.52 1.28)" fill="#1d1d1d"/></svg>