<svg id="f9accabc-c446-4800-a6a5-a42900232e36" data-name="Capa 1" xmlns="http://www.w3.org/2000/svg" viewBox="0 0 48 48"><title>our-team</title><path d="M41.07,25.62H37.36a9.66,9.66,0,0,1,.58,3.32V43a4.27,4.27,0,0,1-.23,1.39h6.13A4.16,4.16,0,0,0,48,40.2V32.55A6.94,6.94,0,0,0,41.07,25.62Z" fill="#fff"/><path d="M10.06,28.94a9.66,9.66,0,0,1,.58-3.32H6.93A6.94,6.94,0,0,0,0,32.55V40.2a4.16,4.16,0,0,0,4.16,4.16h6.13A4.27,4.27,0,0,1,10.06,43Z" fill="#fff"/><path d="M28.24,22H19.76a6.94,6.94,0,0,0-6.93,6.93V43a1.38,1.38,0,0,0,1.38,1.39H33.79A1.38,1.38,0,0,0,35.17,43v-14A6.94,6.94,0,0,0,28.24,22Z" fill="#fff"/><path d="M24,3.64a8.33,8.33,0,0,0-4.07,15.6,8.28,8.28,0,0,0,8.14,0A8.33,8.33,0,0,0,24,3.64Z" fill="#fff"/><path d="M9.37,11.41a6.23,6.23,0,1,0,2.45,12,6.23,6.23,0,0,0-2.45-12Z" fill="#fff"/><path d="M38.63,11.41a6.23,6.23,0,1,0,6.23,6.23A6.24,6.24,0,0,0,38.63,11.41Z" fill="#fff"/></svg>