<svg id="f7239d5a-898f-4703-a68e-33755b984952" data-name="Layer 1" xmlns="http://www.w3.org/2000/svg" viewBox="0 0 128 104.13"><title>our-works</title><path d="M120.87,25.68h-1.09a11.87,11.87,0,0,0-10.61-10.4A11.86,11.86,0,0,0,97.4,4.7H21.84A18.36,18.36,0,0,0,3.5,23V76A11.86,11.86,0,0,0,14.2,87.8,11.85,11.85,0,0,0,25.77,98.37,10.63,10.63,0,0,0,36.4,108.84h84.47A10.64,10.64,0,0,0,131.5,98.21V36.31A10.64,10.64,0,0,0,120.87,25.68Zm5.63,10.63V77.24L115.63,69a8.34,8.34,0,0,0-10-.09L91.87,79l-26.23-27a8.39,8.39,0,0,0-11.58-.45L30.77,72V36.31a5.64,5.64,0,0,1,5.63-5.63h84.47A5.64,5.64,0,0,1,126.5,36.31Zm0,61.9a5.63,5.63,0,0,1-5.62,5.63H36.4a5.65,5.65,0,0,1-5.38-4,5.77,5.77,0,0,1-.25-1.67V78.68l26.6-23.46a3.39,3.39,0,0,1,4.68.18L73.89,67.61h0L97.45,91.9A2.5,2.5,0,1,0,101,88.42l-5.65-5.83L108.57,73a3.38,3.38,0,0,1,4,0L126.5,83.51ZM19.13,86.53v-59a6,6,0,0,1,0-.74,7.29,7.29,0,0,1,7.24-6.54H57a2.5,2.5,0,1,0,0-5H26.41A12.3,12.3,0,0,0,14.13,27.5V82.75A6.86,6.86,0,0,1,8.5,76V23A13.36,13.36,0,0,1,21.84,9.7H97.4a6.86,6.86,0,0,1,6.71,5.52H77a2.5,2.5,0,0,0,0,5h31a6.85,6.85,0,0,1,6.7,5.46H36.4A10.64,10.64,0,0,0,25.77,36.31V77.55h0V93.37A6.85,6.85,0,0,1,19.13,86.53Z" transform="translate(-3.5 -4.7)" fill="#fff"/><path d="M100.63,40.86a10.7,10.7,0,1,0,10.7,10.69A10.71,10.71,0,0,0,100.63,40.86Zm0,16.39a5.7,5.7,0,1,1,5.7-5.69A5.7,5.7,0,0,1,100.63,57.25Z" transform="translate(-3.5 -4.7)" fill="#fff"/><path d="M64.69,18.68a2.49,2.49,0,0,0,.22.43,3.79,3.79,0,0,0,.32.38,2.76,2.76,0,0,0,.37.31A2.64,2.64,0,0,0,66,20a2.62,2.62,0,0,0,.95.19,2.63,2.63,0,0,0,.49,0,2.43,2.43,0,0,0,.9-.37,2.33,2.33,0,0,0,.38-.31,2.72,2.72,0,0,0,.31-.38,2.55,2.55,0,0,0,.23-.43,2.79,2.79,0,0,0,.14-.47,2.43,2.43,0,0,0,0-1,2.43,2.43,0,0,0-.37-.9,2.24,2.24,0,0,0-.31-.38,2.33,2.33,0,0,0-.38-.31,2.43,2.43,0,0,0-.9-.37,2.27,2.27,0,0,0-1,0,2.54,2.54,0,0,0-.47.14,2.64,2.64,0,0,0-.44.23,2.76,2.76,0,0,0-.37.31,2.92,2.92,0,0,0-.32.38,2.49,2.49,0,0,0-.22.43,2,2,0,0,0-.15.47,2.43,2.43,0,0,0,0,1A2.14,2.14,0,0,0,64.69,18.68Z" transform="translate(-3.5 -4.7)" fill="#fff"/></svg>