<svg id="b07f1417-5a2e-4f0c-9f9a-e50510f59882" data-name="Capa 1" xmlns="http://www.w3.org/2000/svg" viewBox="0 0 121 129"><title>resume</title><path d="M91.64,59.52a3.86,3.86,0,0,0-3.52-2.27H72.62V6.89A3.87,3.87,0,0,0,68.75,3H53.25a3.87,3.87,0,0,0-3.87,3.87V57.25H33.88A3.88,3.88,0,0,0,31,63.68l27.12,31a3.87,3.87,0,0,0,5.82,0L91,63.68A3.86,3.86,0,0,0,91.64,59.52Z" fill="#fff"/><path d="M103.61,88.24v23.25H18.39V88.24H2.89v31A7.74,7.74,0,0,0,10.64,127H111.36a7.74,7.74,0,0,0,7.75-7.74v-31Z" fill="#fff"/></svg>