<svg id="a934f78e-bfe4-4c6a-b519-21a1ae078a43" data-name="Layer 1" xmlns="http://www.w3.org/2000/svg" viewBox="0 0 34 34"><title>twitter-black</title><path d="M15.48,31.72h0a16,16,0,0,1-16-16h0a16,16,0,0,1,16-16h0a16,16,0,0,1,16,16h0A16,16,0,0,1,15.48,31.72Z" transform="translate(1.52 1.28)" fill="none" stroke="#1d1d1d" stroke-miterlimit="10" stroke-width="2"/><path d="M12,20.27A4.65,4.65,0,0,0,12.18,22a3.48,3.48,0,0,0,.93,1.28,4.48,4.48,0,0,0,1.57.86,6.76,6.76,0,0,0,2.11.3,8.73,8.73,0,0,0,2-.21,10.57,10.57,0,0,0,2-.74V20.75a4.78,4.78,0,0,1-2.63.86,2.56,2.56,0,0,1-1.33-.35,1.22,1.22,0,0,1-.59-.68,19,19,0,0,1-.17-3.4v-3h4.14V11.42H16.05V7H13.59a7.81,7.81,0,0,1-.49,2.05,4.41,4.41,0,0,1-1.22,1.64,5.72,5.72,0,0,1-1.83,1v2.48H12Z" transform="translate(1.52 1.28)" fill="#1d1d1d"/></svg>